<svg width="430" height="64" viewBox="0 0 430 64" fill="none" xmlns="http://www.w3.org/2000/svg">
<path d="M70.464 41V20.296H84.512C86.112 20.296 87.4987 20.52 88.672 20.968C89.8667 21.3947 90.7947 22.0773 91.456 23.016C92.1173 23.9333 92.448 25.1173 92.448 26.568C92.448 27.5493 92.2773 28.3813 91.936 29.064C91.5947 29.7467 91.1147 30.3013 90.496 30.728C89.8987 31.1547 89.2053 31.4853 88.416 31.72C87.6267 31.9333 86.784 32.072 85.888 32.136L85.44 31.88C86.9333 31.9013 88.16 32.0293 89.12 32.264C90.08 32.4773 90.7947 32.8827 91.264 33.48C91.7547 34.056 92 34.92 92 36.072V41H87.744V36.36C87.744 35.5707 87.6053 34.9627 87.328 34.536C87.0507 34.088 86.5493 33.7787 85.824 33.608C85.12 33.4373 84.096 33.352 82.752 33.352H74.72V41H70.464ZM74.72 30.024H84.512C85.7067 30.024 86.6133 29.736 87.232 29.16C87.872 28.584 88.192 27.8053 88.192 26.824C88.192 25.8853 87.872 25.1707 87.232 24.68C86.6133 24.1893 85.7067 23.944 84.512 23.944H74.72V30.024ZM101.158 32.36V37.448H117.126V41H96.9015V20.296H117.094V23.848H101.158V29H114.214V32.36H101.158ZM133.212 41.416C131.292 41.416 129.553 41.192 127.996 40.744C126.46 40.296 125.126 39.624 123.996 38.728C122.886 37.832 122.033 36.7227 121.436 35.4C120.838 34.0773 120.54 32.552 120.54 30.824C120.54 29.0747 120.849 27.528 121.468 26.184C122.108 24.8187 123.004 23.6667 124.156 22.728C125.329 21.7893 126.716 21.0853 128.316 20.616C129.937 20.1253 131.729 19.88 133.692 19.88C136.017 19.88 138.022 20.2107 139.708 20.872C141.393 21.512 142.716 22.4187 143.676 23.592C144.657 24.7653 145.212 26.1627 145.34 27.784H141.244C140.966 26.9307 140.508 26.1947 139.868 25.576C139.249 24.936 138.428 24.4453 137.404 24.104C136.38 23.7413 135.142 23.56 133.692 23.56C131.836 23.56 130.246 23.8587 128.924 24.456C127.622 25.0533 126.63 25.896 125.948 26.984C125.265 28.072 124.924 29.352 124.924 30.824C124.924 32.2533 125.222 33.4907 125.82 34.536C126.417 35.56 127.334 36.3493 128.572 36.904C129.83 37.4587 131.43 37.736 133.372 37.736C134.865 37.736 136.177 37.544 137.308 37.16C138.46 36.7547 139.42 36.2213 140.188 35.56C140.956 34.8773 141.5 34.12 141.82 33.288L143.484 32.68C143.206 35.432 142.161 37.576 140.348 39.112C138.556 40.648 136.177 41.416 133.212 41.416ZM142.396 41C142.396 40.3387 142.438 39.5813 142.524 38.728C142.609 37.8533 142.716 36.9787 142.844 36.104C142.972 35.208 143.089 34.3867 143.196 33.64H133.724V30.92H146.076V41H142.396ZM151.166 20.296H155.422V41H151.166V20.296ZM159.557 34.024H163.877C163.962 34.7493 164.293 35.4107 164.869 36.008C165.466 36.584 166.245 37.0427 167.205 37.384C168.165 37.704 169.242 37.864 170.437 37.864C171.525 37.864 172.421 37.7467 173.125 37.512C173.829 37.2773 174.351 36.9467 174.693 36.52C175.034 36.0933 175.205 35.5813 175.205 34.984C175.205 34.408 174.991 33.9707 174.565 33.672C174.138 33.352 173.466 33.096 172.549 32.904C171.631 32.6907 170.426 32.4773 168.933 32.264C167.759 32.0933 166.65 31.8587 165.605 31.56C164.559 31.24 163.631 30.8347 162.821 30.344C162.031 29.8533 161.402 29.256 160.933 28.552C160.485 27.8267 160.261 26.9733 160.261 25.992C160.261 24.776 160.602 23.7093 161.285 22.792C161.989 21.8747 163.023 21.16 164.389 20.648C165.754 20.136 167.429 19.88 169.413 19.88C172.399 19.88 174.693 20.52 176.293 21.8C177.914 23.0587 178.703 24.7973 178.661 27.016H174.501C174.415 25.7573 173.882 24.8507 172.901 24.296C171.941 23.7413 170.725 23.464 169.253 23.464C167.887 23.464 166.757 23.6667 165.861 24.072C164.986 24.4773 164.549 25.1707 164.549 26.152C164.549 26.536 164.655 26.8773 164.869 27.176C165.082 27.4533 165.445 27.6987 165.957 27.912C166.469 28.1253 167.162 28.328 168.037 28.52C168.911 28.712 169.999 28.904 171.301 29.096C172.517 29.2667 173.615 29.5013 174.597 29.8C175.599 30.0773 176.453 30.4507 177.157 30.92C177.882 31.368 178.437 31.944 178.821 32.648C179.205 33.352 179.397 34.216 179.397 35.24C179.397 36.4987 179.066 37.5973 178.405 38.536C177.765 39.4533 176.762 40.168 175.397 40.68C174.053 41.192 172.303 41.448 170.149 41.448C168.613 41.448 167.258 41.288 166.085 40.968C164.911 40.6267 163.898 40.1787 163.045 39.624C162.191 39.0693 161.498 38.4613 160.965 37.8C160.431 37.1387 160.047 36.4773 159.813 35.816C159.599 35.1547 159.514 34.5573 159.557 34.024ZM181.328 20.296H203.152V23.848H181.328V20.296ZM190.128 23.4H194.384V41H190.128V23.4ZM210.501 32.36V37.448H226.469V41H206.245V20.296H226.437V23.848H210.501V29H223.557V32.36H210.501ZM230.839 41V20.296H244.887C246.487 20.296 247.874 20.52 249.047 20.968C250.242 21.3947 251.17 22.0773 251.831 23.016C252.492 23.9333 252.823 25.1173 252.823 26.568C252.823 27.5493 252.652 28.3813 252.311 29.064C251.97 29.7467 251.49 30.3013 250.871 30.728C250.274 31.1547 249.58 31.4853 248.791 31.72C248.002 31.9333 247.159 32.072 246.263 32.136L245.815 31.88C247.308 31.9013 248.535 32.0293 249.495 32.264C250.455 32.4773 251.17 32.8827 251.639 33.48C252.13 34.056 252.375 34.92 252.375 36.072V41H248.119V36.36C248.119 35.5707 247.98 34.9627 247.703 34.536C247.426 34.088 246.924 33.7787 246.199 33.608C245.495 33.4373 244.471 33.352 243.127 33.352H235.095V41H230.839ZM235.095 30.024H244.887C246.082 30.024 246.988 29.736 247.607 29.16C248.247 28.584 248.567 27.8053 248.567 26.824C248.567 25.8853 248.247 25.1707 247.607 24.68C246.988 24.1893 246.082 23.944 244.887 23.944H235.095V30.024ZM285.987 36.776L284.643 37.32V20.296H288.899V41H284.643L267.907 24.648L269.251 24.104V41H264.995V20.296H269.251L285.987 36.776ZM306.159 41.416C303.407 41.416 301.05 40.9893 299.087 40.136C297.146 39.2613 295.652 38.024 294.607 36.424C293.583 34.824 293.071 32.904 293.071 30.664C293.071 28.4027 293.583 26.472 294.607 24.872C295.652 23.272 297.146 22.0453 299.087 21.192C301.05 20.3173 303.407 19.88 306.159 19.88C308.932 19.88 311.29 20.3173 313.231 21.192C315.172 22.0453 316.655 23.272 317.679 24.872C318.724 26.472 319.247 28.4027 319.247 30.664C319.247 32.904 318.724 34.824 317.679 36.424C316.655 38.024 315.172 39.2613 313.231 40.136C311.29 40.9893 308.932 41.416 306.159 41.416ZM306.159 37.736C307.866 37.736 309.359 37.48 310.639 36.968C311.94 36.456 312.954 35.6773 313.679 34.632C314.426 33.5867 314.799 32.264 314.799 30.664C314.799 29.064 314.426 27.7413 313.679 26.696C312.954 25.6507 311.94 24.872 310.639 24.36C309.359 23.8267 307.866 23.56 306.159 23.56C304.474 23.56 302.97 23.8267 301.647 24.36C300.324 24.872 299.29 25.6507 298.543 26.696C297.796 27.7413 297.423 29.064 297.423 30.664C297.423 32.264 297.796 33.5867 298.543 34.632C299.29 35.6773 300.324 36.456 301.647 36.968C302.97 37.48 304.474 37.736 306.159 37.736ZM329.064 41L320.328 20.296H325.032L332.424 38.632L331.048 38.664L338.088 20.296H342.984L350.024 38.664L348.648 38.632L356.04 20.296H360.648L352.007 41H346.792L339.88 23.048H341.224L334.28 41H329.064Z" fill="white"/>
<path d="M32 0L0 32L32 64V0Z" fill="#FF8E3D"/>
<rect width="366" height="64" transform="translate(32)" fill="#FF8E3D"/>
<path d="M398 0L430 32L398 64V0Z" fill="#FF8E3D"/>
</svg>
