<svg width="430" height="64" fill="none" xmlns="http://www.w3.org/2000/svg"><path d="M70.464 41V20.296h14.048c1.6 0 2.987.224 4.16.672 1.195.427 2.123 1.11 2.784 2.048.661.917.992 2.101.992 3.552 0 .981-.17 1.813-.512 2.496a4.35 4.35 0 01-1.44 1.664 6.958 6.958 0 01-2.08.992c-.79.213-1.632.352-2.528.416l-.448-.256c1.493.021 2.72.15 3.68.384.96.213 1.675.619 2.144 1.216.49.576.736 1.44.736 2.592V41h-4.256v-4.64c0-.79-.139-1.397-.416-1.824-.277-.448-.779-.757-1.504-.928-.704-.17-1.728-.256-3.072-.256H74.72V41h-4.256zm4.256-10.976h9.792c1.195 0 2.101-.288 2.72-.864.64-.576.96-1.355.96-2.336 0-.939-.32-1.653-.96-2.144-.619-.49-1.525-.736-2.72-.736H74.72v6.08zm26.438 2.336v5.088h15.968V41H96.901V20.296h20.193v3.552h-15.936V29h13.056v3.36h-13.056zm32.054 9.056c-1.92 0-3.659-.224-5.216-.672-1.536-.448-2.87-1.12-4-2.016a8.938 8.938 0 01-2.56-3.328c-.598-1.323-.896-2.848-.896-4.576 0-1.75.309-3.296.928-4.64a9.718 9.718 0 012.688-3.456c1.173-.939 2.56-1.643 4.16-2.112 1.621-.49 3.413-.736 5.376-.736 2.325 0 4.33.33 6.016.992 1.685.64 3.008 1.547 3.968 2.72.981 1.173 1.536 2.57 1.664 4.192h-4.096a5.312 5.312 0 00-1.376-2.208c-.619-.64-1.44-1.13-2.464-1.472-1.024-.363-2.262-.544-3.712-.544-1.856 0-3.446.299-4.768.896-1.302.597-2.294 1.44-2.976 2.528-.683 1.088-1.024 2.368-1.024 3.84 0 1.43.298 2.667.896 3.712.597 1.024 1.514 1.813 2.752 2.368 1.258.555 2.858.832 4.8.832 1.493 0 2.805-.192 3.936-.576 1.152-.405 2.112-.939 2.88-1.6.768-.683 1.312-1.44 1.632-2.272l1.664-.608c-.278 2.752-1.323 4.896-3.136 6.432-1.792 1.536-4.171 2.304-7.136 2.304zm9.184-.416c0-.661.042-1.419.128-2.272.085-.875.192-1.75.32-2.624l.352-2.464h-9.472v-2.72h12.352V41h-3.68zm8.77-20.704h4.256V41h-4.256V20.296zm8.391 13.728h4.32c.085.725.416 1.387.992 1.984.597.576 1.376 1.035 2.336 1.376.96.32 2.037.48 3.232.48 1.088 0 1.984-.117 2.688-.352.704-.235 1.226-.565 1.568-.992.341-.427.512-.939.512-1.536 0-.576-.214-1.013-.64-1.312-.427-.32-1.099-.576-2.016-.768-.918-.213-2.123-.427-3.616-.64a25.404 25.404 0 01-3.328-.704c-1.046-.32-1.974-.725-2.784-1.216-.79-.49-1.419-1.088-1.888-1.792-.448-.725-.672-1.579-.672-2.56 0-1.216.341-2.283 1.024-3.2.704-.917 1.738-1.632 3.104-2.144 1.365-.512 3.04-.768 5.024-.768 2.986 0 5.28.64 6.88 1.92 1.621 1.259 2.41 2.997 2.368 5.216h-4.16c-.086-1.259-.619-2.165-1.6-2.72-.96-.555-2.176-.832-3.648-.832-1.366 0-2.496.203-3.392.608-.875.405-1.312 1.099-1.312 2.08 0 .384.106.725.32 1.024.213.277.576.523 1.088.736.512.213 1.205.416 2.08.608.874.192 1.962.384 3.264.576 1.216.17 2.314.405 3.296.704 1.002.277 1.856.65 2.56 1.12a4.611 4.611 0 011.664 1.728c.384.704.576 1.568.576 2.592 0 1.259-.331 2.357-.992 3.296-.64.917-1.643 1.632-3.008 2.144-1.344.512-3.094.768-5.248.768-1.536 0-2.891-.16-4.064-.48-1.174-.341-2.187-.79-3.04-1.344-.854-.555-1.547-1.163-2.08-1.824-.534-.661-.918-1.323-1.152-1.984-.214-.661-.299-1.259-.256-1.792zm21.771-13.728h21.824v3.552h-21.824v-3.552zm8.8 3.104h4.256V41h-4.256V23.4zm20.373 8.96v5.088h15.968V41h-20.224V20.296h20.192v3.552h-15.936V29h13.056v3.36h-13.056zM230.839 41V20.296h14.048c1.6 0 2.987.224 4.16.672 1.195.427 2.123 1.11 2.784 2.048.661.917.992 2.101.992 3.552 0 .981-.171 1.813-.512 2.496a4.344 4.344 0 01-1.44 1.664 6.958 6.958 0 01-2.08.992c-.789.213-1.632.352-2.528.416l-.448-.256c1.493.021 2.72.15 3.68.384.96.213 1.675.619 2.144 1.216.491.576.736 1.44.736 2.592V41h-4.256v-4.64c0-.79-.139-1.397-.416-1.824-.277-.448-.779-.757-1.504-.928-.704-.17-1.728-.256-3.072-.256h-8.032V41h-4.256zm4.256-10.976h9.792c1.195 0 2.101-.288 2.72-.864.64-.576.96-1.355.96-2.336 0-.939-.32-1.653-.96-2.144-.619-.49-1.525-.736-2.72-.736h-9.792v6.08zm50.892 6.752l-1.344.544V20.296h4.256V41h-4.256l-16.736-16.352 1.344-.544V41h-4.256V20.296h4.256l16.736 16.48zm20.172 4.64c-2.752 0-5.109-.427-7.072-1.28-1.941-.875-3.435-2.112-4.48-3.712-1.024-1.6-1.536-3.52-1.536-5.76 0-2.261.512-4.192 1.536-5.792 1.045-1.6 2.539-2.827 4.48-3.68 1.963-.875 4.32-1.312 7.072-1.312 2.773 0 5.131.437 7.072 1.312 1.941.853 3.424 2.08 4.448 3.68 1.045 1.6 1.568 3.53 1.568 5.792 0 2.24-.523 4.16-1.568 5.76-1.024 1.6-2.507 2.837-4.448 3.712-1.941.853-4.299 1.28-7.072 1.28zm0-3.68c1.707 0 3.2-.256 4.48-.768 1.301-.512 2.315-1.29 3.04-2.336.747-1.045 1.12-2.368 1.12-3.968s-.373-2.923-1.12-3.968c-.725-1.045-1.739-1.824-3.04-2.336-1.28-.533-2.773-.8-4.48-.8-1.685 0-3.189.267-4.512.8-1.323.512-2.357 1.29-3.104 2.336-.747 1.045-1.12 2.368-1.12 3.968s.373 2.923 1.12 3.968c.747 1.045 1.781 1.824 3.104 2.336 1.323.512 2.827.768 4.512.768zM329.064 41l-8.736-20.704h4.704l7.392 18.336-1.376.032 7.04-18.368h4.896l7.04 18.368-1.376-.032 7.392-18.336h4.608L352.007 41h-5.215l-6.912-17.952h1.344L334.28 41h-5.216z" fill="#fff"/><path d="M32 0L0 32l32 32V0zm0 0h366v64H32zm366 0l32 32-32 32V0z" fill="#FF8E3D"/></svg>