<svg width="42" height="42" fill="none" xmlns="http://www.w3.org/2000/svg"><path d="M42 42H0V0h36.167L42 5.833V42z" fill="#808692"/><path fill-rule="evenodd" clip-rule="evenodd" d="M34.843 28.174a23.087 23.087 0 01-7.003 3.555.089.089 0 01-.098-.033 18.854 18.854 0 01-1.43-2.34.09.09 0 01.049-.124c.762-.29 1.487-.637 2.184-1.046a.09.09 0 00.008-.15 10.76 10.76 0 01-.434-.344.086.086 0 00-.092-.01c-4.529 2.104-9.49 2.104-14.072 0a.086.086 0 00-.09.012c-.14.116-.287.231-.434.342a.09.09 0 00.009.15 15.34 15.34 0 002.184 1.047c.05.018.073.076.048.123-.41.821-.891 1.6-1.43 2.34a.09.09 0 01-.098.033 23.168 23.168 0 01-6.992-3.555.099.099 0 01-.036-.066c-.488-5.255.507-10.575 4.136-16.03a.078.078 0 01.038-.032 22.909 22.909 0 015.699-1.778.09.09 0 01.091.043c.248.441.53 1.005.722 1.467a21.23 21.23 0 016.4 0 16.44 16.44 0 01.71-1.466.086.086 0 01.092-.044c2 .347 3.915.955 5.7 1.778a.065.065 0 01.035.034c3.162 4.678 4.725 9.954 4.14 16.03a.09.09 0 01-.036.064zM16.357 24.91c1.402 0 2.516-1.274 2.516-2.839.022-1.553-1.104-2.838-2.516-2.838-1.402 0-2.516 1.274-2.516 2.838 0 1.565 1.136 2.839 2.516 2.839zm9.303 0c1.413 0 2.517-1.274 2.517-2.839.022-1.553-1.104-2.838-2.517-2.838-1.401 0-2.516 1.274-2.516 2.838 0 1.565 1.137 2.839 2.517 2.839z" fill="#fff"/><path fill-rule="evenodd" clip-rule="evenodd" d="M34.843 28.174a23.087 23.087 0 01-7.003 3.555.089.089 0 01-.098-.033 18.854 18.854 0 01-1.43-2.34.09.09 0 01.049-.124c.762-.29 1.487-.637 2.184-1.046a.09.09 0 00.008-.15 10.76 10.76 0 01-.434-.344.086.086 0 00-.092-.01c-4.529 2.104-9.49 2.104-14.072 0a.086.086 0 00-.09.012c-.14.116-.287.231-.434.342a.09.09 0 00.009.15 15.34 15.34 0 002.184 1.047c.05.018.073.076.048.123-.41.821-.891 1.6-1.43 2.34a.09.09 0 01-.098.033 23.168 23.168 0 01-6.992-3.555.099.099 0 01-.036-.066c-.488-5.255.507-10.575 4.136-16.03a.078.078 0 01.038-.032 22.909 22.909 0 015.699-1.778.09.09 0 01.091.043c.248.441.53 1.005.722 1.467a21.23 21.23 0 016.4 0 16.44 16.44 0 01.71-1.466.086.086 0 01.092-.044c2 .347 3.915.955 5.7 1.778a.065.065 0 01.035.034c3.162 4.678 4.725 9.954 4.14 16.03a.09.09 0 01-.036.064zm-15.97-6.104c0 1.565-1.114 2.839-2.516 2.839-1.38 0-2.516-1.274-2.516-2.839 0-1.564 1.114-2.838 2.516-2.838 1.412 0 2.538 1.285 2.516 2.838zm6.787 2.839c1.413 0 2.517-1.274 2.517-2.839.022-1.553-1.104-2.838-2.517-2.838-1.401 0-2.516 1.274-2.516 2.838 0 1.565 1.137 2.839 2.517 2.839z" fill="#fff"/></svg>