<svg width="42" height="42" fill="none" xmlns="http://www.w3.org/2000/svg"><path d="M42 42H0V0h36.167L42 5.833V42z" fill="#808692"/><path fill-rule="evenodd" clip-rule="evenodd" d="M20.997 33.599a101.81 101.81 0 006.472-.177c1.459-.09 2.723-.562 3.759-1.407.957-.781 1.617-1.858 1.96-3.202.34-1.333.36-2.763.378-4.146.015-1.084.03-2.366.034-3.668a329.106 329.106 0 00-.034-3.666c-.019-1.384-.038-2.814-.378-4.147-.343-1.344-1.003-2.421-1.96-3.202-1.036-.845-2.3-1.318-3.759-1.406a101.951 101.951 0 00-6.466-.178 101.68 101.68 0 00-6.472.178c-1.459.088-2.723.561-3.76 1.406-.957.78-1.616 1.858-1.96 3.202-.34 1.333-.359 2.763-.378 4.146-.014 1.084-.03 2.368-.033 3.67.003 1.297.019 2.58.033 3.665.02 1.383.039 2.813.379 4.146.343 1.344 1.002 2.421 1.96 3.202 1.036.844 2.3 1.318 3.759 1.406a101.3 101.3 0 006.466.178zm-7.348-12.6c0 4.021 3.272 7.292 7.292 7.292 4.021 0 7.292-3.27 7.292-7.291a7.3 7.3 0 00-7.292-7.292c-4.02 0-7.291 3.27-7.291 7.292zM27.3 13.126a1.75 1.75 0 113.5 0 1.75 1.75 0 01-3.5 0z" fill="#fff"/><path d="M20.941 16.041A4.964 4.964 0 0015.983 21a4.964 4.964 0 004.958 4.958A4.964 4.964 0 0025.9 21a4.964 4.964 0 00-4.959-4.959z" fill="#fff"/></svg>