<svg width="282" height="152" fill="none" xmlns="http://www.w3.org/2000/svg"><path d="M176.615 95.155c-.636.478-.636.478-.196 2.474-1.368-.71-1.842 0-2.319 1.134-.367.887-1.202 1.573-1.735 2.404-.332.514-.719 1.151-.686 1.708.199 3.222.03 6.391-1.083 9.445a1.952 1.952 0 01-1.17 1.025c-.679.195-.934.449-.894 1.161.083 1.554.083 3.11.132 4.667 0 .412.073.821.113 1.233l-.374.059c-.086-.597-.222-1.19-.249-1.787-.059-1.27-.026-2.546-.099-3.812-.06-1.039-.663-1.619-1.726-1.56-1.063.059-1.298.795-1.202 1.672.367 3.39.785 6.777 1.136 10.173a6.961 6.961 0 01-.146 1.979 1.595 1.595 0 01-.918.099 6.945 6.945 0 01-.583-2.005c-.235-2.922-.347-5.85-.606-8.769a36.072 36.072 0 00-.781-4.778c-.097-.422-.699-.729-1.07-1.088-.259.409-.693.798-.746 1.23-.583 4.913-.169 9.804.391 14.691.198 1.299.308 2.61.331 3.924 0 .525-.55 1.039-.848 1.56-.308-.445-.811-.864-.881-1.345-.162-1.118-.099-2.266-.149-3.4-.208-4.593-.428-9.186-.662-13.778a3.98 3.98 0 00-.236-.851h-.351c0 .636-.023 1.276 0 1.913a3.876 3.876 0 01-1.019 2.641 3.915 3.915 0 01-2.548 1.253c-1.223.06-3.038 2.131-2.932 3.443.351 4.323.745 8.643 1.116 12.967.087.607.112 1.221.076 1.833-.046.389-.301 1.029-.556 1.079-1.302.257-.885 1.071-.822 1.892.279 3.575.516 7.153.713 10.734.039.706.019 1.765-1.014 1.61-.593-.086-1.454-.877-1.527-1.435-.139-1.108.175-2.275.331-3.416.176-1.362.798-2.83.48-4.06-.993-3.851-.695-7.746-.904-11.627-.129-2.355-.331-4.706-.484-7.061-.139-2.43-.231-4.861-.331-7.291-.662-.178-1.832-.155-2.319-.709-.487-.554-.275-1.728-.434-2.615a4.036 4.036 0 00-.473-1.055c-.199-.39-.52-.739-.623-1.148-.484-1.946-.914-3.904-1.408-6.055.613.891 1.146 1.735 1.746 2.526.599.792 1.275 1.405 1.782 2.193.252.39.232.99.268 1.481.053.795-.023 1.606.113 2.384.043.251.682.66.855.574a1.428 1.428 0 00.718-.933c.106-.772.034-1.57.275-2.388.169.462.249.99.53 1.369a1.404 1.404 0 001.051.561c.258-.037.583-.601.619-.957.142-1.464.182-2.935.282-4.758.2-.562.363-1.136.486-1.719.212-1.253.487-2.522.454-3.779a14.301 14.301 0 00-.662-3.832c-.434-1.375-.825-2.595.623-3.627.331-.25.49-.778.732-1.187-2.65-1.115-3.002-1.923-1.73-4.459.448 1.32 2.319 1.408 1.988 3.037 1.988.126 3.995.297 5.999.35.663.016 1.355-.264 2.21-.445l-.822 1.157c1.756.99 3.591.683 5.343.287 1.021-.23 1.13-2.156.282-2.783-.417-.307-.795-.66-1.057-.884 1.166-1.767 2.458-3.34 3.313-5.118 1.494-3.05 1.076-6.028-1.285-8.521-3.601-3.8-8.146-5.936-13.301-4.947-5.379 1.023-8.149 3.555-7.304 8.855-1.179 2.407 1.232 3.245 2.1 4.758.171.245.358.477.56.696l-2.319 1.5c.424.888.931 1.95 1.441 3.011l-.245.201-4.899-3.812c.112.35.247.693.404 1.026 1.742 2.833 3.551 5.626 5.221 8.498.858 1.474 1.06 3.106.162 5.128-.633-4.346-2.899-7.562-4.899-10.882-1.041-1.728-2.72-2.688-4.568-3.298-.309-.106-.921.37-1.253.712-2.464 2.54-4.034 5.633-5.22 8.904-.663 1.797-.994 3.703-1.527 5.784-.096-.696-.385-1.345-.219-1.843.802-2.394 1.656-4.779 2.65-7.1a40.398 40.398 0 012.557-4.887c1.034-1.722 1.988-3.668 4.704-3.239-.205-.834-.351-1.415-.49-1.978 1.537-1.247 1.537-1.247.351-2.995a2.652 2.652 0 01.286-3.202 2.69 2.69 0 01.933-.663c.583-.224 1.262-.804 1.418-1.358.119-.429-.477-1.085-.812-1.603a2.891 2.891 0 00-.662-.554l.02-.396c.533-.026 1.093-.165 1.596-.053 1.097.241 2.081.195 2.982-.547.301-.244.685-.54 1.033-.544 1.789-.026 2.955-1.141 4.121-2.24 1.597-1.506 3.482-1.787 5.522-1.318 2.18.504 4.336 1.121 6.516 1.616.616.138 1.292.02 1.938.02l.189-.522-1.325-.751 1.534-1.709-.216-.475-3.644.835c-.188-1.062-.384-2.203-.599-3.337-.166-.878-.444-1.432-1.597-1.089-.523.155-1.325-.171-1.815-.537-.268-.202-.331-1.03-.129-1.392.202-.363.801-.498 1.252-.68.357-.117.723-.21 1.093-.276l-1.027-.792c.166-.66 2.074-.461 1.222-1.738-.742-1.117-1.656.38-2.593.139l.579.419c-.152.452-.294.887-.477 1.428l-1.739-.765c.136.732.249 1.319.437 2.35-.791-.388-1.52-.54-1.576-.82-.086-.445.278-.99.434-1.412l-3.83-1.817c.067-.2.129-.405.192-.607l2.75.69c.387-.91.5-1.65.934-2.009.262-.214 1.024.175 1.829.35.934-.834 2.169-1.906 3.902.211 0-.739.136-1.197-.023-1.345-.898-.835-.471-1.32.387-1.715-.238-1.735-1.987-.66-2.726-1.441.301-.521.44-.521 3.067.043.063-.495.123-.99.193-1.554.231.037.455.111.662.221 1.292 1.062 2.514 2.216 3.866 3.199a4.619 4.619 0 011.282 5.903c-.249.445-.037 1.14-.037 1.718l.59.194a8.01 8.01 0 00.884-1.464 7.52 7.52 0 00.219-1.648l.56-.139c.623 1.062 1.404 2.061 1.835 3.196a32.98 32.98 0 012.1 15.093c-.298 3.09-.536 6.19-.964 9.263-.208 1.507-.788 2.968-1.192 4.442-.48 1.761-.153 2.418 1.325 3.542.527.402.755 1.194 1.113 1.81.149.261.295.555.454.851zm-18.246 11.282l-.331-.356c-.646.3-1.372.504-1.902.946-.208.172.02.867.05 1.319.44-.059 1.057.04 1.282-.211.434-.452.623-1.118.901-1.698zm10.839-35.068l1.736 1.962c.066-1.685-.226-1.998-1.736-1.962zM136.4 32.07c-.441.1-.643.155-.852.191-.443.076-1.215.304-1.278.182-.259-.508-.504-1.174-.375-1.689a4.17 4.17 0 011.107-2.031c2.57-2.285 2.961-5.029 2.014-8.145-.543-1.778-.524-1.768 1.259-2.639a9.02 9.02 0 001.222-.863c-.066-.132-.132-.264-.195-.396-.994.372-2.061.6-2.939 1.144-2.113 1.32-3.133.894-3.425-1.553a2.118 2.118 0 00-.288-.99c-1.063-1.404-1.097-2.806 0-4.23-1.229-.126-1.613.214-1.898 1.553-.331 1.546-1.395 2.157-2.319 1.26-.394-.386-.517-1.05-.798-1.65-1.12.413-1.087 1.373-.623 2.078.354.541 1.216.752 1.921 1.148-.811.95-1.759 1.204-2.859.838-2.415-.805-2.521-2.89-2.65-4.917l-1.325.771.186 1.814c-1.932-.33-2.273-1.204-1.875-4.584-1.064.468-1.488 1.23-1.252 2.563.185 1.055.516 2.087.821 3.297l-2.401-.405c.357 1.286 1.295 1.648 2.252 1.52 1.875-.221 3.432-.023 4.969 1.342 1.239 1.101 2.932.627 4.359-.148.607-.33 1.16-.759 1.783-1.171.646 1.108.331 1.843-.693 2.414a17.12 17.12 0 00-1.987 1.26c-1.093.814-2.263.867-3.505.461l-1.779-.62.477 1.286-1.709-.735-.245.422 2.998 1.857c-2.823.33-6.844-2.038-7.951-4.845l2.843.91.159-.349c-.507-.264-1.014-.521-1.518-.788-2.65-1.412-4.15-4.11-3.839-6.925.133-1.217.331-1.428 1.514-2.015.275-.139.417-.551.613-.841 2.319-3.466 5.631-5.276 9.762-5.695l-5.247 2.806.142.33c.795-.28 1.597-.538 2.379-.848 5.502-2.163 11.087-4.03 17.053-4.366 4.528-.254 8.987 0 13.068 2.309.15.09.294.19.431.3.026.02.023.075.056.21l-1.173.627c0 .132.02.264.027.396 1.077 0 2.153-.026 3.226 0 2.319.07 4.638.188 6.768 1.401 2.981 1.715 3.505 3.978 1.431 6.721a1.107 1.107 0 00-.255.858l1.988-1.32.367.287-1.835 2.705.954.382c-1.295.943-2.319 1.876-3.524 2.516-1.206.64-2.601 1.026-3.949 1.537l2.173.208v.366l3.7-1.626c-2.213 3.268-6.025 2.872-8.613 4.805-.775-1.679-2.017-.228-3.057-.633l.914-.96-1.722-.66 1.593-.854-.053-.369h-4.946l3.975-3.67-.48-.492-.815 1.32-.354-.133c-.237-.813-.473-1.627-.709-2.443-.52 1.368-.55 2.85-2.133 3.453-.577-1.171-2.369-1.23-3.144-.07-.57.845-1.206 1.448-2.461 1.49.848-1.915.026-3.257-1.239-4.517-.481-.475-.762-1.148-1.464-1.695-.014.443.029.887.129 1.32.193.391.454.746.772 1.048 1.679 1.902 1.706 2.147.304 4.267 1.779.821 3.121.171 4.442-1.349.789 2.533.835 4.805-.172 7.064-.265.6-.729 1.15-.838 1.77-.096.561-.04 1.383.308 1.735.875.884.785 1.837.686 3.262l-1.749-2.506-1.256 1.678c-.298-.567-.493-.943-.712-1.365-.391.372-.662.504-.682.66-.245 1.905-1.766 3.06-2.713 4.54-.331.528-1.117.779-1.693 1.158l-.268-.287c.274-.507.496-1.04.662-1.593.066-.618.075-1.24.027-1.86zm2.852-4.481c2.799-1.217 3.167-2.14 1.809-4.175-.633 1.464-1.223 2.82-1.809 4.175zm2.564-22.903c0-.102-.03-.201-.043-.303h-6.712c1.213.33 2.273.854 3.353.893 1.08.04 2.266-.372 3.402-.59zm1.259 19.879c1.288-1.263.887-2.563.543-3.862h-.364l-.179 3.862zm102.087 51.533c-.049.498-.135.99-.135 1.5 0 6.005-.05 12.01.019 18.016 0 1.319-.407 1.649-1.656 1.59-2.12-.093-4.243-.027-6.473-.027V51.124c2.568 0 5.108-.033 7.646.043.308 0 .765.574.871.957a575.577 575.577 0 012.581 9.92c.361 1.414.682 2.842 1.023 4.263l.514-.043V51.062c2.55 0 5.045-.023 7.536.043.199 0 .533.616.546.953.063 1.49.03 2.968.03 4.471v38.933c0 1.682 0 1.685-1.749 1.688-1.805 0-3.614-.032-5.416 0-.894.017-1.153-.359-1.302-1.22-.775-4.485-1.656-8.953-2.488-13.425-.399-2.137-.802-4.273-1.209-6.41l-.338.003zm-1.742-22.319c.858-.277 1.918-.244 1.501-1.573-1.73-.211-1.733-.208-1.501 1.586v-.013zm.663 16.126c-.623-.604-.905-1.115-1.229-1.145-.693-.062-1.6.149-.931 1.099.215.303 1.239.059 2.16.059v-.013zm16.834 7.532V59.675c0-2.447.027-4.893 0-7.34 0-.93.259-1.32 1.276-1.32 4.405.053 8.814-.072 13.213.073 2.949.096 6.679 2.424 6.593 6.596-.222 10.961-.073 21.926-.073 32.89 0 3.599-2.677 6.51-6.341 6.616-4.535.125-9.073.03-13.611.073-1.12 0-1.02-.716-1.024-1.409V77.437h-.033zm12.714-3.281h-.02v-12.35a6.35 6.35 0 00-.056-1.178c-.216-1.14-1.05-1.698-2.418-1.731-1.051-.023-1.882.02-1.945 1.451-.05 1.092-.033 7.793.08 9.003.135 1.47.053 2.968.046 4.442-.02 4.86-.06 9.718-.053 14.576a1.162 1.162 0 00.53.893c2.266.9 3.836-.19 3.839-2.638.002-4.16.001-8.316-.003-12.468zM20.488 84.774l-1.394-.208c1.987.812 1.52 2.493 1.467 3.958-.056 1.606.027 3.297-.444 4.794-.864 2.764-3.292 3.958-5.926 4.083-4.525.23-9.066.07-13.601.066a2.637 2.637 0 01-.59-.171V52.852c0-1.688 0-1.695 1.766-1.698 3.786 0 7.572-.016 11.358 0 4.638 0 7.427 2.727 7.44 7.314.027 8.376 0 16.75 0 25.122.007.376-.042.752-.076 1.184zM8.07 74.222h.089v14.06c0 .423.149 1.066.44 1.228 1.534.844 3.518-.208 3.754-1.926.05-.39.075-.784.073-1.178 0-8.102.016-16.208 0-24.31 0-2.48-.75-3.08-3.2-3.034-.925 0-1.19.307-1.18 1.227.047 4.63.024 9.273.024 13.92v.013zM220.838 97.17c-2.604 0-5.019.027-7.43-.036-.239 0-.663-.55-.663-.825.332-6.463.699-12.927 1.054-19.387.102-1.873.169-3.746.255-5.665l1.053-.122c-.053-.205-.05-.393-.119-.426-.941-.445-.911-1.16-.815-2.077.229-2.13.268-4.287.421-6.418.152-2.13.397-4.326.516-6.493.067-1.203-.026-2.417-.072-3.627-.027-.706.241-1.026.993-1.022 4.801.022 9.6.022 14.397 0 .715 0 1.02.257 1.024.989 0 .99.39 2.084.122 2.968-.384 1.273.255 2.361.196 3.551-.063 1.346.168 2.705.245 4.06.076 1.355.136 2.7.182 4.053.046 1.352.023 2.71.109 4.063.394 6.242.822 12.481 1.219 18.724.153 2.355.288 4.716.331 7.074a1.183 1.183 0 01-.804.837 98.78 98.78 0 01-6.705-.119c-.285-.016-.732-.66-.769-1.032-.175-1.919-.261-3.848-.331-5.774-.036-.973-.291-1.5-1.461-1.47-2.617.065-2.65.069-2.676 2.7-.01 1.78-.166 3.529-.272 5.474zm2.667-37.785l-.371-.02c-.12.887-.292 1.771-.332 2.662-.248 4.21-.46 8.425-.692 12.636-.099 1.791-.219 3.582-.311 5.372-.08 1.517 1.093.99 1.855 1.092.891.135.993-.392.993-1.111 0-.897-.44-1.963.481-2.309-.269-.633-.636-1.121-.663-1.632-.232-3.925-.384-7.852-.589-11.78-.103-1.632-.252-3.27-.371-4.91zM44.018 51.207v12.927l-1.206-.449.046-.198 1.05.116c-.49-.584-.794-1.217-1.053-1.2-.798.056-.854.679-.702 1.368.074.569.112 1.141.113 1.715 1.325.498 1.891 1.76 1.864 3.65-.102 7.453-.02 14.91-.07 22.365a8.7 8.7 0 01-.635 3.163c-.818 1.979-2.375 2.892-4.591 2.84-3.346-.08-6.692 0-10.04-.017-3.002 0-4.685-1.484-5.003-4.449a40.27 40.27 0 01-.275-4.188c-.015-11.929-.015-23.855 0-35.78 0-1.84 0-1.84 1.888-1.843 1.544 0 3.091.079 4.638-.023 1.255-.086 1.636.286 1.633 1.586-.053 10.83-.03 21.659-.023 32.492 0 .524 0 1.052.026 1.576.123 1.95.643 2.513 2.27 2.483 1.533-.026 2.02-.6 2.02-2.555v-33.68c0-1.906 0-1.903 1.948-1.903l6.102.004zm-2.743 6.925l1.7.363V56.34l-.332-.161-1.368 1.952zm10.789 31.513l-.994.419v6.925c-1.775-.35-2.855-1.725-2.98-4.017-.123-2.186-.074-4.382-.08-6.575V76.79c0-.468.043-.94.07-1.484h3.726c-.298 1.382-.59 2.728-.934 4.304 2.319-1.141 2.842-2.388 2.057-4.195.06-.05.122-.142.182-.142 3.438-.092 2.938-.408 2.981 2.698.043 3.245 0 6.493.037 9.738.023 1.649.212 1.794 1.987 1.853 1.468.05 2.064-.33 2.12-1.675.1-2.351.053-4.709.06-7.067 0-1.424-.026-2.849 0-4.27.023-1.151-.487-1.82-1.534-2.338-3.074-1.517-6.088-3.16-9.146-4.713a2.647 2.647 0 01-1.219-1.048 2.629 2.629 0 01-.384-1.557c.026-3.628-.06-7.281.04-10.919.082-3.192 2.173-4.9 5.35-4.801 2.98.096 5.992-.116 8.977.053 1.427.079 3.067.392 4.164 1.2.93.683 1.583 2.193 1.712 3.403.259 2.44.076 4.927.076 7.456h-7.85c-.093-.87-.17-1.691-.265-2.513-.133-1.134-.825-1.58-1.919-1.507-1.093.073-2.096.093-2.206 1.623-.182 2.542-.102 2.803 2.18 4.007 2.763 1.45 5.525 2.898 8.282 4.366 1.146.613 1.864 1.421 1.861 2.888 0 5.917.123 11.836.146 17.752 0 1.151-.222 2.308-.331 3.49h-1.567l1.272.83-2.173 2.994-.537-.178-.497-4.33-.493.076c.073 1.069.172 2.134.205 3.202.03.934-.156 1.722-1.732 1.23-.17-1.507-.352-3.136-.537-4.768l-.209-.053c-.149.778-.45 1.567-.414 2.335.043.834.401 1.649.64 2.546h-9.465c.143-1.524.458-2.968.352-4.35-.083-1.101-.683-2.166-1.05-3.248.914-1.834-.17-3.502-.332-5.25a36.501 36.501 0 00-.583 4.636c-.016.175.623.386.954.58zm4.207-36.842c-.702-.109-1.603-1.233-1.987.442l-.733-.525-.195.149c.195.445.391.894.59 1.342l.252-.31c.458.323.938.615 1.437.874.126.053.573-.244.606-.429a8.705 8.705 0 00.03-1.543zm5.092 10.355c.699-.91 1.5-1.498 1.474-2.042-.027-.544-.872-1.075-1.358-1.609l-.398.244c.08 1.039.166 2.074.282 3.407zm-11.618 30.83l.202-.036c.242-.792.62-1.573.69-2.378.079-.867-.133-1.758-.22-2.638h-.267v2.46h-.136l-.269-1.111v3.703zM62.628 77.44a2.83 2.83 0 00-.394 3.924c.122-1.371.258-2.648.387-3.924h.007zm.285-5.3l-.633-.075c-.097.965-.195 1.931-.295 2.898l.497.06c.137-.959.279-1.92.424-2.882h.007zm.239-3.933h-.52l.208 3.27.311-.019v-3.251zm-1.627 16.92l.586-.06c-.1-.982-.196-1.965-.291-2.947l-.295.016v2.991zm140.123-17.699c.941.6 1.574 1.204 1.56 2.447-.069 5.96-.033 11.921-.039 17.884 0 1.493.284 1.688 1.778 1.619 1.832-.083 3.667-.02 5.566-.02v7.657c-.39.061-.783.102-1.176.122-4.307 0-8.63-.02-12.946.03-1.09 0-1.471-.33-1.431-1.425.122-3.235.228-6.473.219-9.708-.02-5.3-.15-10.596-.193-15.892 0-.584.242-1.164.352-1.748a1.265 1.265 0 000-.54c-.103-.4-.332-.788-.332-1.184-.023-4.733 0-9.468-.03-14.2 0-1.102.371-1.461 1.451-1.425 1.892.063 3.787.036 5.678 0 .775 0 1.11.247 1.09 1.062-.089 3.76-.142 7.522-.199 11.282.018.21.058.418.12.62.198.966.208 1.85-.756 2.493-.311.197-.463.583-.712.926zM90.716 51.203v5.109l.225.056.467-1.32.136.024v3.868l-2.283.132c-.202-.41-.37-.745-.54-1.082l-.553 1.055h-2.256l-1.914 4.103.374.29.308-.785.282.122c-.332 1.237-.68 2.473-1.07 3.888.48.623.904 1.494-.116 2.589-.136-.4-.229-.66-.331-.95l-.246-.043-.42 1.573-.136-2.513-1.405 1.827c.332 1.224.97 2.695 1.067 4.198.096 1.504-.355 3.03-.467 3.849l.818-1.26c-.142.185-.162-2.358.802-3.4l.593.93.735-.795c-.11.654-.168 1.316-.172 1.979.03.412.298.808.457 1.21l.437-.063c0 6.837 0 13.673-.02 20.509 0 .39-.255.778-.39 1.167l-.405-.112c-.076-.475-.155-.95-.235-1.424l-.331-.02-.232 1.408c-1.153.442-1.573-.056-1.656-1.18-.193-2.504-.454-5-.663-7.5a2.936 2.936 0 01.096-1.299c.722-1.764-.096-3.298-.553-5.187l-.662 1.774-.448-.06c.285-2.694.567-5.388.875-8.326l-1.325.725.258.201c-.331.614-.682 1.214-.95 1.85a8.21 8.21 0 00-.332 1.372h.845v6.959l.331.141c.206-.534.414-1.071.7-1.817v6.088l-.193.05-.205-1.574c-.772.779-.603 1.742-.61 2.665 0 1.47 0 2.945-.017 4.416 0 .88-.695.864-1.215.718a1.229 1.229 0 01-.722-.903c-.034-7.842-.034-15.685 0-23.53 0-1.236.367-2.473.347-3.706-.016-1.045-.347-2.084-.56-3.235l.875.135c.017-.33.18-.758.027-.97-1.302-1.833-.626-3.788-.438-5.714-.002-.15-.017-.3-.043-.449h-4.273c-1.855 0-2.13-.27-2.133-2.11-.004-1.84 0-3.687 0-5.653 4.078 0 7.867-.145 11.627.1.957.062 1.829-.192 2.75-.116.993.083 2.023 0 3.037 0l2.05.017zm-6.02 1.728l-1.613 7.196 1.415.86c.106-.946.228-1.846.301-2.75.073-.903.126-1.747.116-2.638-.006-.768.782-1.596-.218-2.667zm5.052.855l-.467.135c-.331-.33-.662-.66-.994-.953-.33-.294-.801-.577-1.238-.884-.2 1.606-.355 2.866-.554 4.455.848-.96 1.18-2.002 2.369-1.758.033.512.06.947.086 1.382l.427.03c.122-.8.246-1.603.371-2.407zm-9.394 21.408c.92-1.945.957-3.627.086-5.276l-.663 2.638-.496-2.203c-1.11 2.203.877 3.156 1.073 4.841zm1.808-14.556l.381.033.332 1.438.507-.162c-.475-1.332-.948-2.662-1.418-3.99l-.457.083v5.091c.339-.275.573-.658.662-1.085a7.98 7.98 0 00-.007-1.408zm-3.368 5.81c-.468 1.696-.468 1.696.622 2.128l.789-.99-1.411-1.137zm.828-7.739c1.418-.884.954-1.91.904-2.856l-.368-.072-.536 2.928zm38.055 51.784c1.716 4.125.129 8.013.464 11.918l-.64.026-.662-10.599-.381-.023a9.076 9.076 0 00-1.557 4.561c-.6 6.849.212 13.649.643 20.466.099 1.573.155 3.156.099 4.729-.017.432-.533 1.2-.805 1.19-.487 0-1.325-.452-1.375-.788a30.728 30.728 0 01-.278-5.448c.209-3.406.745-6.796.911-10.206.123-2.526-.176-5.069-.192-7.605 0-1.837.139-3.677.205-5.514.03-.439.019-.881-.033-1.319-.487-3.053-.994-6.1-1.524-9.296l-1.533-.267c.662-.933 1.195-1.151 2.133-.597.454.267 1.302.33 1.722.099 1.607-.943 3.207-.989 4.969-.373l-1.023 2.282 2.885-.329.056.191-1.162.584c1.089.659 1.507 1.958 3.07 1.46.835-.263 2.929 1.501 3.018 2.583.076.92-.298 1.876-.404 2.822-.04.376-.03.99.182 1.118a6.637 6.637 0 002.008.683c.112.02.41-.547.503-.877.046-.423.046-.85 0-1.273.732.161 1.769.165 1.852.445.295 1.012.282 2.117.361 3.189.036.514-.139 1.108.056 1.54.828 1.824.395 2.615-1.616 2.75-.331.023-.679.079-1.209.145v9.02l-.414.033a8.07 8.07 0 01-.166-1.013c-.083-2.104-.172-4.204-.199-6.308 0-.699-.169-1.095-.904-1.343-.461-.158-.792-.702-1.219-1.108-.103.36-.285.97-.464 1.577l-.275.046c-.093-.412-.209-.821-.275-1.237-.315-1.896-.57-3.799-.954-5.678-.079-.406-.599-.723-.917-1.079-.302.406-.822.788-.872 1.224-.536 4.821-.192 9.626.368 14.424.191 1.476.302 2.961.331 4.448 0 .439-.51.878-.785 1.32-.311-.413-.868-.808-.894-1.237-.126-1.979-.05-3.941-.149-5.906-.159-3.235-.418-6.464-.59-9.699-.076-1.441 0-2.889-.073-4.333-.026-.514-.122-1.283-.45-1.467-.391-.235-1.08.003-1.842.049zm-9.196-30.973c-.288-1.031-.715-2.212-.931-3.429-.142-.817.037-1.688.033-2.532a8.935 8.935 0 00-.135-1.254c-.027-.161-.176-.33-.146-.471.464-2.325 1.023-4.617 1.394-6.965.186-1.147.034-2.351.034-3.541 1.497-.41 2.537.177 2.318 4.903.246.03.497.07.749.086.252.016.504 0 .934 0l-.768-1.088 1.302-.739c.758 2.018 1.03 3.957.526 5.952a18.843 18.843 0 01-1.066 2.823c-.123.277-.448.468-.683.7a3.874 3.874 0 01-.51-.809c-.13-.451-.23-.91-.301-1.375a9.949 9.949 0 00-1.571-.435.897.897 0 00-.725.373c-.076.135.166.474.301.705.325.454.618.929.878 1.422.663 1.566 1.209 3.192 1.935 4.728.868 1.834.57 3.605.162 5.438-.185-.036-.238-.03-.258-.052-.351-.41-.699-.822-1.047-1.23.053.577-.119 1.42.195 1.685 1.09.913.302 2.05.554 3.047.513 2.044.808 4.129 2.719 5.48-1.908-.507-2.839-1.882-3.312-3.647-.242-.916-.567-1.721-1.706-1.978.241 4.22.483 8.392.728 12.567 0 .218.136.465.07.66a8.241 8.241 0 01-.576 1.035c-.289-.33-.809-.633-.822-.966-.04-.953.166-1.916.205-2.876.1-2.407.289-4.82.179-7.218-.059-1.263-.735-2.49-.993-3.76a7.937 7.937 0 01-.02-2.308c.069-.768.314-1.52.394-2.289.02-.207-.252-.488-.451-.66-.316-.273-.648-.53-.993-.767l1.404-1.214zm31.722-40.38a6.576 6.576 0 01.424 4.657c-.189.785-.123 1.626-.212 2.434a31.244 31.244 0 01-.451 3.337c-.202.91-.156 1.467.957 1.467.941 0 1.574.373 1.756 1.408a1.375 1.375 0 00.802.808c.65.2 1.314.35 1.987.449-1.586.844-2.911.36-3.773-.953a3.196 3.196 0 00-1.987-1.197 3.286 3.286 0 00-1.96.207 3.264 3.264 0 00-1.485 1.29c-.994 1.741-2.65 1.698-3.976 1.375-2.236-.534-3.922.491-5.939 1.16v-2.238c-1.401.755-1.679 1.629-1.06 2.859.918 1.814-.454 4.171-2.461 4.237-.22.026-.443.026-.663 0-1.52-.306-2.478.294-3.001 1.732-.093.25-.467.399-.712.597-.176-.231-.507-.465-.5-.69.036-1.507-1.027-1.292-1.922-1.207-.546.053-1.073.33-1.726.541.063-.867.123-1.672.183-2.466-1.637-.33-1.988-.172-3.353 1.401-.411-.834-.049-1.705.928-2.233 2.65-1.43 4.087-.989 5.654 1.857.898-.96 1.802-1.504 3.313-1.263.994.162 2.193-.788 3.296-1.24-.159-.597-.513-1.45-.586-2.331a2.881 2.881 0 011.517-2.856c1.033-.597 1.987-.4 2.955.254a1.473 1.473 0 001.249 0c.834-.442 1.434-.508 1.987.415.126.208.961.307 1.103.142a10.177 10.177 0 001.408-2.153c.722-1.478 1.352-2.998 2.17-4.446.884 1.616-.03 2.968-.467 4.43a12.847 12.847 0 003.077-5.432c.55-2.041.967-4.139 1.468-6.351zm-2.949 11.796c1.892-1.088 2.634-2.813 2.104-4.468-.669 1.431-1.305 2.783-2.1 4.468h-.004zm-8.341 50.337a9.534 9.534 0 01-.778-1.392c-.474-1.349-1.087-1.748-2.521-1.576-1.656.194-3.313.491-4.969.481-.699 0-1.467-.6-2.057-1.098-.212-.178-.159-1.138.056-1.263a8.274 8.274 0 012.223-.795c.768-.188 1.656-.069 2.319-.412 2.458-1.263 5.3-.36 6.433 2.17.159.36.271.742.434 1.101.831 1.811.835 1.811-1.14 2.784z" fill="#fff"/><path d="M142.896 42.003l1.162 1.78.431-.131-.994-6.596h-.308l-.44 1.3-.444-3.608 1.265.577a686.525 686.525 0 01-.331-3.225c1.113.864 2.14 1.484 2.084 3.07l-1.269-.425c.795 2.898 1.53 5.507 2.216 8.129.222.86.315 1.75.467 2.638-3.111.326-3.753-.267-3.839-3.51zm-15.944 61.334l1.64 2.269 1.809-.868c.417.848.662 1.649 1.142 2.243.888 1.101 2.164 1.062 3.389.709.381-.109.646-.594.994-.881.226-.246.511-.432.828-.54.475-.02.95.014 1.418.099-.156 1.296-1.027 2.054-2.716 2.232-1.796.188-3.522.132-4.81-1.474-.179-.224-.835-.155-1.252-.089-1.147.181-2.276-.076-2.8-1.019-.387-.696-.155-1.731-.198-2.615l.556-.066zm8.318-24.733c1.216 1.979.832 5.141-.768 6.737a20.93 20.93 0 01-8.722 5.267 5.771 5.771 0 01-.809.079c5.125-2.872 10.034-5.517 10.299-12.083zm11.001 25.33c2.597-.933 5.132.92 4.734 3.344-.113.699-1.103 1.319-1.815 1.8-.133.086-1.037-.62-1.276-1.111-.636-1.303-1.106-2.684-1.643-4.033zm6.768-38.629c0 .58-.129 1.098.026 1.513.444 1.21-.142 1.497-1.179 1.537-1.037.04-2.103.171-3.153.152-.411 0-.812-.33-1.216-.508.16-.37.344-.729.55-1.075.139-.208.43-.31.583-.512 1.447-1.922 2.054-2.084 4.389-1.108zm-18.537 1.866c-1.461.821-5.582 1.052-8.398.468 1.325-.989 2.253-2.166 3.939-2.1 1.686.066 3.286.118 4.459 1.632zm-.189-21.969c2.408-1.553 2.196-3.694 1.656-5.98-.146-.636.169-1.378.272-2.073l.374.03.417 3.485h.448l.579-2.137.332-.04c.033 1.056.39 2.243.026 3.14-.54 1.319-1.54 2.493-2.461 3.627-.229.28-.918.195-1.391.277l-.252-.33zm-20.482 34.744c-1.633-4.135 1.988-7.541 6.456-8.903-2.981 2.417-5.353 5.032-6.456 8.903zm33.328-29.343l1.527 2.114c.911-.99 1.753-2.335 3.247-1.438.91.551 1.623 1.432 1.242 2.727-.12-.408-.129-.926-.391-1.2a1.967 1.967 0 00-1.256-.56c-.215 0-.49.53-.662.864-.199.392-.265 1.134-.484 1.174a2.175 2.175 0 01-1.424-.383 3.755 3.755 0 01-1.344-1.409 3.73 3.73 0 01-.455-1.889zm-12.734 21.409l-.964 2.473-3.491-3.769c.262-.204.603-.442.918-.716 1.03-.89 1.066-.85 1.51.485.126.383.586.693.951.953a8.1 8.1 0 001.076.574zm5.9 1.306l-2.345 1.82c-.172-.33-.507-.66-.48-.973.075-.851.236-1.693.48-2.512a1.064 1.064 0 01.739-.63c.848-.08 1.666.92 1.606 2.295zm2.922-15.305c1.924-1.846 3.909-1.757 5.631-.814.938.514 1.365 1.952 2.014 2.968 0 0-.116.105 0 .016-.748-.415-1.421-.785-2.087-1.164a1.594 1.594 0 01-.503-.376c-1.15-1.52-1.62-1.685-3.439-1.144-.427.132-.838.27-1.616.514zm18.55-10.348c-.606.4-1.222 1.121-1.808 1.102-.587-.02-1.199-.766-1.951-1.32 1.371-1.144 2.448-.587 3.518-.283.079.178.159.34.241.501zM127.893 34.78c-1.057-.352-2.14-.659-3.16-1.084-.769-.33-.812-.956-.057-1.365a10.886 10.886 0 013.296-1.174 20.14 20.14 0 00-2.04.93c-.861.5-.851 1.062.026 1.553.659.327 1.336.617 2.028.867l-.093.274zm23.791-3.887c1.143.36 2.319.66 3.419 1.095.878.33.878.99.099 1.424a8.733 8.733 0 01-3.061 1.085c.398-.129.78-.301 1.14-.514.443-.36.863-.748 1.259-1.16a8.43 8.43 0 00-1.239-1.03 11.402 11.402 0 00-1.7-.636l.083-.264zM85.415 71.662l-1.017-1.648c.733-.406 1.044-.884.6-2.002-.331-.798.136-1.9.417-2.84v6.49zm44.87-13.959c-.872 1.296-1.792 2.671-2.833 4.225.133-2.678 1.289-4.132 2.833-4.225zm7.496 40.935c-.152-2.225-.304-4.45-.454-6.675l.385-.033c.159 2.227.316 4.452.473 6.675l-.404.033zm3.174-2.928c-.126-2.184-.253-4.366-.381-6.547l.364-.02c.141 2.2.286 4.388.434 6.566h-.417zm24.967-10.79c.662 2.558.51 2.93-1.11 3.142.404-1.138.759-2.14 1.11-3.143zm-22.228 18.087l-1.325.096c-.132-1.079-.262-2.091-.388-3.103l.14-.063c.496.956.983 1.916 1.573 3.07zm23.536-54.122a1.9 1.9 0 011.154.634c.296.342.459.778.459 1.23l-.387.356-1.68-1.798.454-.422zm-36.183 32.737c-.355-1.237-.663-2.309-1.034-3.595 1.272 1.148 1.66 2.546 1.034 3.595zm42.089 22.691c.398.498.822.798.822 1.098 0 .3-.484.769-.719.749a1.156 1.156 0 01-.845-.719c-.059-.261.381-.613.742-1.128zM125.24 73.08c-2.091-.29-4.005-1.21-5.907.09 1.481-1.148 4.012-1.165 5.907-.09zm13.932 7.82l-.152 2.95c-1.087-.761-1.096-1.41.152-2.95zm18.256-34.013c-.109.05-.228.158-.331.138-.56-.105-1.116-.24-1.656-.366.089-.204.205-.597.265-.59.612.089 1.219.24 1.825.376l-.103.442zm-.242 15.523l-1.616-1.811.42-.383 1.584 1.814-.388.38zm1.183 44.027c-.282.58-.467 1.246-.885 1.705-.225.25-.841.151-1.282.211-.029-.459-.258-1.154-.049-1.319.53-.442 1.255-.66 1.901-.947l.315.35zm10.839-35.068c1.51-.036 1.812.277 1.736 1.962l-1.736-1.962zm-28.147-47.955c-.633 1.464-1.223 2.82-1.809 4.175 2.799-1.217 3.167-2.14 1.809-4.175zm.755-18.728c-1.136.218-2.279.63-3.402.59-1.123-.04-2.14-.55-3.353-.893h6.712c.013.102.03.2.043.303zm1.259 19.879l.179-3.869h.364c.344 1.32.745 2.606-.543 3.869zM243.42 53.792c-.232-1.794-.229-1.797 1.501-1.573.417 1.33-.643 1.296-1.501 1.573zm.663 16.126c-.921 0-1.945.257-2.16-.046-.663-.95.238-1.161.931-1.098.324.03.606.54 1.229 1.144zM41.275 58.119l1.355-1.953.331.162v2.153l-1.686-.362zm14.996-5.316c.036.514.026 1.03-.03 1.543-.033.185-.48.482-.606.429-.498-.258-.979-.55-1.438-.874l-.251.31c-.199-.448-.395-.897-.59-1.342l.195-.149.733.525c.384-1.675 1.285-.56 1.987-.442zm-4.207 36.842c-.331-.195-.957-.406-.947-.577.095-1.556.29-3.105.583-4.637.155 1.748 1.239 3.417.331 5.25l.033-.036zm9.299-26.487l-.282-3.407.398-.244c.486.534 1.325 1.052 1.358 1.61.033.557-.782 1.13-1.474 2.04zm-11.624 30.83v-3.71l.268 1.111h.136v-2.43h.268c.086.88.298 1.77.219 2.638-.07.805-.447 1.586-.69 2.378l-.201.013zM62.621 77.44c-.129 1.276-.255 2.553-.394 3.924a2.83 2.83 0 01.394-3.924zm.285-5.3a4257.4 4257.4 0 01-.43 2.883l-.497-.06c.1-.967.197-1.933.295-2.898l.632.076zm.239-3.933v3.274l-.312.02-.208-3.271.52-.023zm-1.627 16.92v-2.991l.295-.016c.095.982.192 1.965.292 2.948l-.587.059zm23.179-32.196c.993 1.056.212 1.9.218 2.685 0 .874-.046 1.75-.116 2.638-.07.887-.195 1.804-.301 2.75l-1.415-.86 1.614-7.212zm5.051.855c-.126.804-.254 1.607-.384 2.407l-.427-.03c-.027-.435-.053-.87-.086-1.381-1.19-.244-1.52.798-2.369 1.757.199-1.59.355-2.849.553-4.455.438.307.858.57 1.24.884.38.313.662.633.993.953l.48-.135zm-9.394 21.408c-.196-1.685-2.183-2.638-1.073-4.828l.496 2.203.663-2.638c.871 1.646.835 3.318-.086 5.263zm1.808-14.556c.036.47.03.94-.016 1.408-.09.427-.323.81-.663 1.085V58.04l.457-.083c.473 1.32.946 2.65 1.418 3.99l-.507.162-.33-1.438-.359-.033zm-3.368 5.811l1.41 1.15-.788.99c-1.09-.445-1.09-.445-.622-2.14zm.828-7.739l.536-2.93.368.073c.05.947.514 1.972-.904 2.856zm57.636-7.774c.795-1.685 1.431-3.037 2.103-4.468.53 1.655-.212 3.38-2.103 4.468z" fill="#fff"/></svg>