<svg width="42" height="42" fill="none" xmlns="http://www.w3.org/2000/svg"><path d="M42 42H0V0h36.167L42 5.833V42z" fill="#808692"/><path d="M16.276 22.794v.002h.886l-.886-.002zm8.857 0v.002h.886l-.886-.002z" fill="#fff"/><path d="M35 20.103c0-1.98-1.59-3.59-3.543-3.59-.781 0-1.523.259-2.13.727-1.976-1.39-4.566-2.22-7.32-2.43l1.486-3.532 4.324 1.023c.138 1.355 1.258 2.418 2.63 2.418 1.465 0 2.658-1.208 2.658-2.693 0-1.484-1.193-2.692-2.658-2.692-.928 0-1.744.486-2.22 1.22l-5.053-1.197a.883.883 0 00-1.019.523L20.1 14.762c-2.974.104-5.808.953-7.948 2.432a3.44 3.44 0 00-2.076-.68c-1.954 0-3.543 1.61-3.543 3.59 0 1.311.707 2.498 1.791 3.106a5.49 5.49 0 00-.02.483c0 4.948 5.563 8.974 12.4 8.974 6.836 0 12.4-4.026 12.4-8.974 0-.14-.005-.278-.014-.416A3.561 3.561 0 0035 20.103zm-4.553-8.974c.488 0 .886.402.886.897a.893.893 0 01-.886.898.893.893 0 01-.885-.898c0-.495.398-.897.885-.897zM14.505 22.796c0-.99.795-1.795 1.771-1.795.976 0 1.771.806 1.771 1.795 0 .99-.795 1.794-1.771 1.794a1.784 1.784 0 01-1.771-1.794zm10.29 5.953a6.91 6.91 0 01-4.09 1.345 6.911 6.911 0 01-4.09-1.345.904.904 0 01-.2-1.253.88.88 0 011.237-.2 5.14 5.14 0 006.105 0 .878.878 0 011.236.2.906.906 0 01-.198 1.253zm.338-4.159a1.784 1.784 0 01-1.771-1.794c0-.99.793-1.795 1.771-1.795.978 0 1.771.806 1.771 1.795 0 .99-.793 1.794-1.77 1.794z" fill="#fff"/></svg>