<svg width="42" height="42" fill="none" xmlns="http://www.w3.org/2000/svg"><path d="M42 42H0V0h36.167L42 5.833V42z" fill="#808692"/><path d="M34.533 12.918a11.4 11.4 0 01-3.197.893 5.603 5.603 0 002.441-3.124 10.967 10.967 0 01-3.518 1.368 5.514 5.514 0 00-4.054-1.788c-3.072 0-5.545 2.54-5.545 5.653 0 .448.037.879.129 1.289-4.614-.23-8.696-2.481-11.438-5.912a5.771 5.771 0 00-.76 2.857c0 1.957.99 3.692 2.466 4.697a5.404 5.404 0 01-2.508-.696v.062c0 2.747 1.924 5.028 4.446 5.553a5.447 5.447 0 01-1.455.186 4.82 4.82 0 01-1.05-.096c.719 2.238 2.759 3.884 5.185 3.937a11.021 11.021 0 01-6.88 2.41 10.2 10.2 0 01-1.328-.077 15.415 15.415 0 008.512 2.537c10.211 0 15.794-8.616 15.794-16.084 0-.25-.009-.49-.02-.73a11.186 11.186 0 002.78-2.935z" fill="#fff"/></svg>