<svg width="42" height="42" fill="none" xmlns="http://www.w3.org/2000/svg"><path d="M42 42H0V0h36.167L42 5.833V42z" fill="#808692"/><path fill-rule="evenodd" clip-rule="evenodd" d="M31.904 12.251c1.22.316 2.181 1.238 2.51 2.409.61 2.138.586 6.595.586 6.595s0 4.434-.586 6.573c-.329 1.17-1.29 2.093-2.51 2.408-2.227.563-11.137.563-11.137.563s-8.888 0-11.139-.585c-1.219-.315-2.18-1.238-2.509-2.409-.586-2.116-.586-6.572-.586-6.572s0-4.435.586-6.573c.329-1.17 1.313-2.116 2.51-2.431 2.227-.563 11.137-.563 11.137-.563s8.91 0 11.139.585zm-6.565 8.982l-7.41 4.096v-8.193l7.41 4.097z" fill="#fff"/></svg>